<?xml version="1.0" encoding="UTF-8" standalone="no"?>
<!-- Created with Inkscape (http://www.inkscape.org/) -->

<svg
   width="300"
   height="300"
   viewBox="0 0 300 300"
   version="1.1"
   id="svg5"
   inkscape:version="1.1.2 (b8e25be833, 2022-02-05)"
   sodipodi:docname="desenho.svg"
   xmlns:inkscape="http://www.inkscape.org/namespaces/inkscape"
   xmlns:sodipodi="http://sodipodi.sourceforge.net/DTD/sodipodi-0.dtd"
   xmlns="http://www.w3.org/2000/svg"
   xmlns:svg="http://www.w3.org/2000/svg">
  <sodipodi:namedview
     id="namedview7"
     pagecolor="#ffffff"
     bordercolor="#666666"
     borderopacity="1.0"
     inkscape:pageshadow="2"
     inkscape:pageopacity="0.0"
     inkscape:pagecheckerboard="0"
     inkscape:document-units="px"
     showgrid="false"
     inkscape:zoom="1.8049838"
     inkscape:cx="144.32262"
     inkscape:cy="125.20888"
     inkscape:window-width="1600"
     inkscape:window-height="837"
     inkscape:window-x="-8"
     inkscape:window-y="-8"
     inkscape:window-maximized="1"
     inkscape:current-layer="g9944" />
  <defs
     id="defs2">
    <clipPath
       clipPathUnits="userSpaceOnUse"
       id="clipPath3653">
      <path
         style="fill:none;stroke:#000000;stroke-width:1px;stroke-linecap:butt;stroke-linejoin:miter;stroke-opacity:1"
         d="m 48.953546,95.867362 7.954951,-4.895355 c 1.708786,-0.484948 5.422286,-3.382554 8.260912,-4.997341 l 3.212577,-2.549664 c 0,0 1.376818,-4.283435 4.232441,-6.731113 2.855624,-2.447677 9.790709,-6.935085 9.790709,-6.935085 l 8.974817,-4.895355 8.566871,-2.039731 8.566866,0.815892 8.15893,5.303301 5.3033,8.566871 v 0 l 2.85562,6.119193 5.3033,5.303301 3.67152,4.895355 9.79071,5.3033 12.64633,7.750979 11.83044,9.79071 12.31051,14.35024 c 6.7632,9.42499 6.72698,9.44662 10.12653,14.20599 l 10.60661,13.46223 47.32176,54.25685 -2.32819,2.92561 -3.16839,0.75336 -2.68497,0.0873 -9.3354,-5.80599 c 3.54533,2.72408 -3.26654,-4.1405 -4.59184,-5.89063 -1.17783,-1.55537 -2.72883,-2.705 -3.89618,-4.27103 -3.22314,-4.32392 -7.32984,-9.10363 -17.30945,-16.71543 l -5.61438,-4.55952 -15.5267,-6.09445 -20.80526,-4.07946 -22.36492,-5.66388 -23.43817,-10.67659 c -2.52592,-1.97751 -2.52434,-1.54428 -8.94795,-5.86041 0,0 -1.02511,-1.12209 -2.01469,-1.77655 -1.15334,-0.76275 -2.20929,-1.78768 -2.728,-2.28467 l -3.17308,-2.8125 -13.211189,-17.02332 -3.671516,-19.98937 -6.119193,-6.527136 z"
         id="path3655"
         sodipodi:nodetypes="ccccscccccccccccccccccccccsscccccccscccccc" />
    </clipPath>
  </defs>
  <g
     inkscape:label="Camada 1"
     inkscape:groupmode="layer"
     id="layer1">
    <g
       id="g10060"
       transform="translate(-14.886592,0.78350484)"
       inkscape:export-filename="C:\Users\carlosgabriel\Pictures\Saved Pictures\logo.png"
       inkscape:export-xdpi="96"
       inkscape:export-ydpi="96">
      <rect
         style="fill:#2f2d30;stroke-width:1.06334;fill-opacity:1"
         id="rect6495"
         width="252.68031"
         height="58.912971"
         x="34.474213"
         y="100.922"
         ry="29.456486" />
      <g
         id="g9944"
         transform="translate(4.7682431,-15.507827)">
        <g
           id="g5339"
           transform="matrix(0.3674094,0,0,0.36229467,197.0048,89.815229)">
          <path
             style="fill:#ebd89f"
             d="m 204.52354,194.20614 c -1.4702,-1.54511 -6.25177,-6.78675 -10.62572,-11.6481 -9.23752,-10.26687 -12.15592,-11.87555 -30.04736,-16.56273 -17.40717,-4.56031 -27.35428,-9.62306 -36.10197,-18.37471 -8.43234,-8.43615 -10.44125,-11.99019 -11.1413,-19.71052 -0.49043,-5.40849 -0.33196,-5.97328 2.45907,-8.76431 1.77497,-1.77497 4.56306,-3.2675 6.88373,-3.68504 2.14526,-0.38597 4.57547,-1.10025 5.40047,-1.58728 1.46809,-0.86667 0.29014,-0.74738 -6.48166,0.65642 -1.36492,0.28295 -4.08451,1.92177 -6.04355,3.64182 l -3.56188,3.12738 -1.99541,-2.14183 c -2.13804,-2.29491 -3.26835,-2.49642 -12.1675,-2.16922 -3.162504,0.11628 -5.750004,-0.005 -5.750004,-0.27051 0,-0.26505 2.62588,-2.18214 5.835284,-4.26019 3.20941,-2.07805 6.24691,-4.71467 6.75,-5.85915 0.5031,-1.14448 3.36981,-3.5438 6.37048,-5.33181 3.00067,-1.788019 5.02567,-3.257832 4.5,-3.266254 -0.52567,-0.0084 -0.28076,-0.451531 0.54424,-0.984687 4.12192,-2.663793 14.75658,-0.191861 16.97035,3.944611 1.50674,2.81536 1.26261,3.47895 -0.72035,1.95809 -0.9625,-0.7382 -0.7375,-0.20179 0.5,1.19201 1.2375,1.39381 2.25,2.90065 2.25,3.34854 0,1.37192 7.26426,9.00792 9.35556,9.83432 4.09903,1.61978 14.30223,9.66983 18.18961,14.35112 2.22484,2.67922 8.04981,10.49631 12.94437,17.37131 4.89456,6.875 14.35476,19.475 21.02267,28 14.42823,18.44667 14.12679,17.98117 12.36591,19.09649 -2.48057,1.57116 -4.98644,0.95136 -7.70504,-1.90577 z m -23.17308,-30.56828 c 0,-0.20765 -0.7875,-0.99515 -1.75,-1.75 -1.58606,-1.24387 -1.62143,-1.2085 -0.37756,0.37756 1.30637,1.66575 2.12756,2.19548 2.12756,1.37244 z m -5,-4 c 0,-0.20765 -0.7875,-0.99515 -1.75,-1.75 -1.58606,-1.24387 -1.62143,-1.2085 -0.37756,0.37756 1.30637,1.66575 2.12756,2.19548 2.12756,1.37244 z m -22,-15.00743 c 0,-0.21175 -1.2375,-1.13845 -2.75,-2.05935 l -2.75,-1.67436 2.36078,2.05935 c 2.30373,2.00958 3.13922,2.4552 3.13922,1.67436 z m -9,-5.96002 c 0,-0.18976 -1.0125,-1.20226 -2.25,-2.25 l -2.25,-1.90499 1.90498,2.25 c 1.79022,2.11444 2.59502,2.70524 2.59502,1.90499 z m -7,-23.65499 c 0,-0.55 -1.0125,-0.99311 -2.25,-0.98469 -1.81944,0.0124 -1.96296,0.20081 -0.75,0.98469 1.93875,1.25292 3,1.25292 3,0 z"
             id="path5353" />
          <path
             style="fill:#e6c65b"
             d="m 207.15333,195.96491 c -0.93341,-0.54433 -5.77589,-5.67498 -10.76105,-11.40145 -10.71972,-12.31377 -13.40961,-13.86927 -32.91444,-19.03365 -16.76251,-4.43829 -27.32406,-9.75988 -35.70871,-17.99236 -7.006,-6.87885 -10.29005,-12.6132 -11.07621,-19.34042 -0.45214,-3.86896 -0.15303,-5.18 1.72311,-7.55279 2.80398,-3.54623 7.58875,-5.62882 12.93224,-5.62882 h 4.06206 l -2.19602,2.97027 c -1.82769,2.47209 -2.00489,3.35264 -1.05651,5.25 1.10319,2.2071 1.12165,2.19488 0.57942,-0.38361 -0.7966,-3.78809 2.49462,-6.83958 7.36324,-6.82689 10.09907,0.0263 23.39098,11.32318 38.22803,32.49023 6.731,9.60268 18.12259,24.63557 34.30775,45.27416 1.69968,2.16737 -0.14815,2.6516 -2.52965,0.66291 -1.24087,-1.0362 -1.69363,-1.24344 -1.00613,-0.46054 2.39345,2.7256 1.27933,3.85449 -1.94713,1.97296 z m -1.80287,-7.2945 c 0,-0.18976 -1.0125,-1.20226 -2.25,-2.25 l -2.25,-1.90499 1.90499,2.25 c 1.79022,2.11444 2.59501,2.70524 2.59501,1.90499 z m -18,-19.00648 c -8.89639,-8.74713 -15.2471,-13.80927 -28.05069,-22.35917 -10.22512,-6.82807 -18.40474,-13.10397 -21.40175,-16.42073 -2.66809,-2.95274 -4.34967,-4.41725 -3.73685,-3.25448 2.39196,4.53851 11.05795,11.69291 27.51848,22.71849 13.05098,8.74178 19.44542,13.8006 26.65106,21.08435 5.21413,5.27067 9.71414,9.57303 10,9.56081 0.28586,-0.0122 -4.65525,-5.11039 -10.98025,-11.32927 z m -73.8463,-50.93925 c -1.86236,-1.86236 -3.13555,-2.11591 -9.64957,-1.92167 -4.127274,0.12308 -7.504134,-2e-4 -7.504134,-0.27394 0,-0.27374 3.15,-2.59232 7.000004,-5.1524 3.85,-2.56007 7,-4.84022 7,-5.06698 0,-0.22677 -0.5625,-0.0882 -1.25,0.30796 -0.6875,0.39615 -0.15577,-0.4808 1.18162,-1.94877 1.3374,-1.46797 4.12871,-3.41778 6.20292,-4.33292 2.07421,-0.915141 3.54907,-2.023444 3.27747,-2.462899 -0.7667,-1.240561 4.2975,-2.166465 8.29837,-1.517214 1.981,0.321471 4.87687,1.80608 6.43528,3.29913 3.25933,3.122633 3.073,4.327433 -0.3035,1.962443 -1.25795,-0.8811 -2.7036,-1.602 -3.21255,-1.602 -0.50896,0 0.56897,1.0125 2.39541,2.25 3.23955,2.19496 5.78884,5.9527 2.85471,4.20795 -0.75886,-0.45125 0.87027,1.30502 3.62027,3.90281 l 5,4.72326 -5.5,-0.65363 c -3.025,-0.35949 -6.14619,-1.00562 -6.93598,-1.43584 -0.78978,-0.43021 -2.36478,-0.41113 -3.5,0.0424 -1.13521,0.45354 -3.26676,1.0806 -4.73676,1.39348 -1.47001,0.31288 -3.9902,1.88633 -5.60043,3.49656 l -2.92769,2.92769 -2.14544,-2.14544 z m 0.37276,-7.51613 c -0.30789,-0.30789 -1.1148,-6.4e-4 -1.79313,0.68278 -0.98027,0.98762 -0.8654,1.10248 0.55979,0.5598 0.98623,-0.37554 1.54122,-0.9347 1.23334,-1.24258 z m 9.2027,-1.7973 c -0.33229,-0.33229 -1.19479,-0.36782 -1.91666,-0.0789 -0.79774,0.31923 -0.56078,0.55618 0.60416,0.60417 1.05417,0.0434 1.64479,-0.19293 1.3125,-0.52522 z m 10.77084,-4.39583 c -0.33992,-0.55 -1.15398,-0.99311 -1.80902,-0.98469 -0.71562,0.009 -0.59228,0.40223 0.30902,0.98469 1.92112,1.24152 2.2673,1.24152 1.5,0 z m -5.77084,-2.60417 c -0.33229,-0.33229 -1.19479,-0.36782 -1.91666,-0.0789 -0.79774,0.31923 -0.56078,0.55619 0.60416,0.60417 1.05417,0.0434 1.64479,-0.19293 1.3125,-0.52522 z"
             id="path5351" />
          <path
             style="fill:#f9c617"
             d="m 204.52354,193.20614 c -1.4702,-1.54511 -6.14883,-6.67428 -10.39697,-11.39816 -9.03429,-10.04602 -11.96044,-11.68585 -29.04749,-16.27841 -20.9909,-5.6418 -29.09331,-9.81723 -38.52058,-19.85083 -6.37334,-6.78326 -9.15663,-12.52757 -9.18608,-18.95878 -0.0171,-3.73133 0.50445,-5.32186 2.35031,-7.16773 2.41517,-2.41517 8.22145,-4.52116 12.49274,-4.53123 2.28399,-0.005 2.30968,0.0789 0.75,2.45924 -2.02378,3.08867 -2.02983,4.83233 -0.0302,8.6992 3.20427,6.19639 10.27982,12.4071 25.43982,22.33034 8.53856,5.58906 18.7087,12.90235 22.60031,16.25176 6.51568,5.60788 27.43813,28.07762 28.20838,30.29451 0.68146,1.9613 -2.07493,0.86714 -4.66025,-1.84991 z m -2.41346,-7.94072 C 186.39546,167.50403 176.866,159.0583 159.22781,147.25989 c -18.96179,-12.68377 -26.87735,-20.43212 -26.87735,-26.30957 0,-2.29315 4.15631,-4.93449 7.75,-4.92513 10.09907,0.0263 23.39098,11.32318 38.22803,32.49023 4.62627,6.6 13.89523,19.01703 20.5977,27.5934 6.70246,8.57638 12.70567,16.56388 13.34046,17.75 2.51843,4.70574 -1.09492,1.6485 -10.15657,-8.5934 z m -87.75962,-66.29828 c 0,-0.57655 -1.43221,-1.65046 -3.18267,-2.38648 l -3.18267,-1.33821 4.369,-2.2289 c 4.62749,-2.36077 12.40612,-2.98744 15.51138,-1.24965 1.46169,0.818 1.14818,1.09212 -1.90399,1.66471 -2.0096,0.377 -5.1661,2.01326 -7.01445,3.63613 -3.5929,3.15461 -4.5966,3.57001 -4.5966,1.9024 z m -17.597242,-2.79439 c 0.286438,-0.46346 4.895062,-3.72596 10.241382,-7.25 9.09269,-5.99346 10.08021,-6.40351 15.28822,-6.34819 3.2848,0.0349 6.9383,0.78265 8.91057,1.82373 1.83861,0.97053 3.5952,1.51233 3.90354,1.20399 0.85651,-0.85652 -6.24852,-3.55687 -11.11299,-4.22362 -3.19189,-0.4375 -5.5545,-0.0494 -9.01305,1.48046 -5.29677,2.34301 -5.50212,1.2771 -0.23544,-1.2221 5.14713,-2.442473 13.57271,-2.124686 17.71712,0.66823 1.86884,1.25941 3.40084,2.72191 3.40446,3.25 0.004,0.52809 2.02862,2.90519 4.5,5.28245 l 4.49343,4.32228 -5,-0.66815 c -2.75,-0.36749 -7.62581,-1.77184 -10.83512,-3.12079 -7.44081,-3.12755 -12.67698,-2.51868 -19.391,2.25482 -3.64524,2.59167 -5.78257,3.38956 -9.0797,3.38956 -2.371722,0 -4.07786,-0.3792 -3.791422,-0.84267 z m 37.046312,-14.69957 c -1.12801,-0.79054 -4.95301,-2.052132 -8.5,-2.803542 -5.76713,-1.221732 -6.15254,-1.447202 -3.64479,-2.132242 4.5507,-1.243109 9.82008,0.140851 13.12691,3.447677 3.14595,3.145947 2.58855,3.990517 -0.98212,1.488107 z"
             id="path5349" />
          <path
             style="fill:#a3946a"
             d="M 202.11008,185.26542 C 186.39546,167.50403 176.866,159.0583 159.22781,147.25989 c -18.96179,-12.68377 -26.87735,-20.43212 -26.87735,-26.30957 0,-2.29315 4.15631,-4.93449 7.75,-4.92513 10.09907,0.0263 23.39098,11.32318 38.22803,32.49023 4.62627,6.6 13.89523,19.01703 20.5977,27.5934 6.70246,8.57638 12.70567,16.56388 13.34046,17.75 2.51843,4.70574 -1.09492,1.6485 -10.15657,-8.5934 z M 96.753218,116.17275 c 0.286438,-0.46346 4.895062,-3.72596 10.241382,-7.25 9.06909,-5.9779 10.09373,-6.40466 15.28822,-6.3675 6.51617,0.0466 13.87405,3.5632 19.22847,9.18997 l 3.33917,3.50901 -5,-0.71528 c -2.75,-0.3934 -7.62581,-1.81896 -10.83512,-3.16791 -7.44081,-3.12755 -12.67698,-2.51868 -19.391,2.25482 -3.64524,2.59167 -5.78257,3.38956 -9.0797,3.38956 -2.371722,0 -4.07786,-0.3792 -3.791422,-0.84267 z m 37.046312,-14.69957 c -1.12801,-0.79054 -4.95301,-2.052132 -8.5,-2.803542 -5.76713,-1.221732 -6.15254,-1.447202 -3.64479,-2.132242 4.5507,-1.243109 9.82008,0.140851 13.12691,3.447677 3.14595,3.145947 2.58855,3.990517 -0.98212,1.488107 z"
             id="path5347" />
          <path
             style="fill:#877959"
             d="m 199.34943,181.89703 c -15.07455,-17.03509 -21.24336,-22.41379 -39.49897,-34.43987 -16.76264,-11.04256 -23.18791,-16.52624 -25.55263,-21.80803 -2.68718,-6.002 -0.43507,-9.54337 6.10628,-9.60191 8.41603,-0.0753 21.06647,9.59557 31.49205,24.07474 7.32117,10.16772 27.34717,36.84477 34.99151,46.61293 9.92402,12.68119 5.38916,9.77082 -7.53824,-4.83786 z M 96.350456,116.57843 c 0,-0.77381 17.381504,-11.81072 20.977094,-13.32004 5.1886,-2.17802 12.43492,-0.25001 20.00482,5.32263 5.84555,4.30325 7.40211,6.4344 4.69959,6.4344 -2.07117,0 -11.2008,-2.8684 -14.33881,-4.50505 -5.43996,-2.83725 -11.69732,-1.61424 -19.73224,3.85668 -2.54878,1.73545 -5.22028,2.64837 -7.75,2.64837 -2.12325,0 -3.860454,-0.19665 -3.860454,-0.43699 z m 36.600564,-15.6263 c -1.59468,-0.984579 -5.19468,-2.110079 -8,-2.501117 -4.41752,-0.615766 -4.80803,-0.843003 -2.91608,-1.696867 3.06034,-1.381176 8.80007,-0.08644 12.06157,2.720774 3.4367,2.95801 2.72968,3.86977 -1.14549,1.47721 z"
             id="path5345" />
          <path
             style="fill:#665b4a"
             d="m 197.98244,180.16046 c -14.93477,-16.41274 -20.03461,-20.78855 -38.63198,-33.14734 -6.875,-4.56875 -14.61511,-10.06042 -17.20025,-12.20372 -8.39542,-6.96052 -11.10629,-14.06501 -6.57725,-17.23728 3.24325,-2.27166 6.49214,-1.92666 13.6226,1.4466 8.30663,3.92968 16.36851,12.11229 27.58362,27.9967 4.85406,6.875 14.89546,20.28538 22.31424,29.80085 7.41877,9.51547 13.26487,17.52466 12.99133,17.79819 -0.27354,0.27354 -6.61958,-6.23076 -14.10231,-14.454 z M 96.350456,116.64755 c 0,-0.95767 19.057394,-12.7882 21.924764,-13.61055 6.18665,-1.77431 15.83526,1.92735 22.07524,8.46909 l 3.5,3.66926 -4,-0.70744 c -2.2,-0.38909 -6.68648,-1.82244 -9.96996,-3.18522 -7.75497,-3.21865 -12.6479,-2.71327 -20.46902,2.1142 -3.89145,2.40194 -7.07259,3.61853 -9.461751,3.61853 -1.9796,0 -3.599273,-0.16554 -3.599273,-0.36787 z M 130.85046,99.960695 c -2.2,-1.041056 -5.575,-1.943308 -7.5,-2.005005 l -3.5,-0.112177 2.98295,-0.889864 c 3.75202,-1.119293 9.5743,0.362566 12.01323,3.057551 2.20954,2.44152 1.24427,2.42932 -3.99618,-0.05051 z"
             id="path5343" />
          <path
             style="fill:#382f2a"
             d="m 201.52239,183.7092 c -15.34193,-17.29128 -23.63363,-24.62659 -41.38018,-36.60731 -18.00637,-12.15611 -20.62351,-14.27615 -24.28596,-19.67306 -6.57931,-9.69517 1.37635,-14.25317 13.85653,-7.93877 8.26385,4.18112 14.61103,10.80701 27.80446,29.02536 6.37281,8.8 16.81735,22.68917 23.21008,30.86482 6.39273,8.17565 11.62314,15.03815 11.62314,15.25 0,1.09209 -1.61006,-0.5318 -10.82807,-10.92104 z M 97.350456,116.65718 c 0,-0.7153 13.310934,-9.73543 17.700344,-11.99459 6.86729,-3.5345 16.18542,-1.17137 24.29966,6.16255 l 4.5,4.06725 -6.00165,-1.36894 c -3.30091,-0.75292 -7.35091,-2.07247 -9,-2.93233 -5.24923,-2.73702 -12.19288,-2.04852 -18.48054,1.83244 -4.98856,3.07912 -13.017814,5.69037 -13.017814,4.23362 z M 132.02074,99.89071 c -1.00634,-0.585141 -3.93134,-1.418529 -6.5,-1.851973 l -4.67028,-0.78808 4.29966,-0.117619 c 3.75197,-0.102637 10.20034,2.051843 10.20034,3.408062 0,0.76107 -1.35867,0.49568 -3.32972,-0.65039 z"
             id="path5341" />
        </g>
        <text
           xml:space="preserve"
           style="font-style:normal;font-variant:normal;font-weight:normal;font-stretch:normal;font-size:23.0101px;line-height:1.25;font-family:'Segoe Script';-inkscape-font-specification:'Segoe Script';fill:#000000;fill-opacity:1;stroke:none;stroke-width:0.575253"
           x="58.781841"
           y="115.69439"
           id="text6151"
           transform="scale(0.70728261,1.413862)"><tspan
             sodipodi:role="line"
             id="tspan6149"
             x="58.781841"
             y="115.69439"
             style="font-style:normal;font-variant:normal;font-weight:normal;font-stretch:normal;font-family:'Segoe Script';-inkscape-font-specification:'Segoe Script';fill:#ffc800;fill-opacity:1;stroke-width:0.575253">Bem-ti-ve Multimarcas</tspan></text>
      </g>
    </g>
  </g>
</svg>
